# xmcd CD database file
#
# Track frame offsets:
#	150
#	21138
#	41690
#	60831
#	82346
#	101783
#	121933
#	143585
#	165358
#	183469
#	203612
#	222846
#
# Disc length: 3228 seconds
#
# Revision: 0
# Processed by: cddbd v1.5.2PL0 Copyright (c) Steve Scherf et al.
# Submitted via: CDex 1.70beta2
#
DISCID=9d0c9a0c
DTITLE=Brian King - Carribean Sunset
DYEAR=1900
DGENRE=Jazz
TTITLE0=Shark Bait
TTITLE1=Smooth Saxanator
TTITLE2=Carribean Sunset
TTITLE3=King Of The Sea
TTITLE4=Saxual Healing
TTITLE5=Keep It Right There
TTITLE6=Spanish Nights
TTITLE7=Yes I Miss Your Lovin
TTITLE8=So In Love
TTITLE9=Steel Them In
TTITLE10=Island Girl
TTITLE11=My Love Please Call
EXTD=
EXTT0=
EXTT1=
EXTT2=
EXTT3=
EXTT4=
EXTT5=
EXTT6=
EXTT7=
EXTT8=
EXTT9=
EXTT10=
EXTT11=
PLAYORDER=
